PathFileType	4	(X/Y/Z)	Kaydara	
DataRate	CameraRate	NumFrames	NumMarkers	Units	OrigDataRate	OrigDataStartFrame	OrigNumFrames	
60.00	60.00	4	74	mm	60.00	273	140	
Frame#	Time	Z_lasi			Z_rasi			Z_rpsi			Z_lpsi			Z_fneck			Z_fhead			Z_rhead			Z_lhead			Z_rshld			Z_relbtop			Z_relblow			Z_rwrext			Z_rwrtop			Z_rwrlow			Z_lshld			Z_lelbext			Z_lelblow			Z_lelbtop			Z_lwrext			Z_lwrtop			Z_lwrlow			Z_rtopleg			Z_ltopleg			Z_rkneefr			Z_rkneebk			Z_rkneeis			Z_lkneefr			Z_lknssbk			Z_lkneeis			Z_rankfr			Z_rankis			Z_rankbk			Z_lankfr			Z_lankbk			Z_lankis			N_lasi			N_rasi			N_rpsi			N_lpsi			N_fneck			N_bneck			N_fhead			N_rhead			N_lhead			N_rshld			N_relbtop			N_relbext			N_relblow			N_rwrext			N_rwrtop			N_rwrlow			N_lshld			N_lelbext			N_lelblow			N_lelbtop			N_lwrext			N_lwrtop			N_lwrlow			N_rtopleg			N_rkneefr			N_rkneebk			N_rkneeis			N_lkneefr			N_lknssbk			N_lkneeis			N_rankfr			N_rankis			N_rankbk			N_lankfr			N_lankbk			N_lankis			Z_relbext			Z_bneck			N_ltopleg			
		X1	Y1	Z1	X2	Y2	Z2	X3	Y3	Z3	X4	Y4	Z4	X5	Y5	Z5	X6	Y6	Z6	X7	Y7	Z7	X8	Y8	Z8	X9	Y9	Z9	X10	Y10	Z10	X11	Y11	Z11	X12	Y12	Z12	X13	Y13	Z13	X14	Y14	Z14	X15	Y15	Z15	X16	Y16	Z16	X17	Y17	Z17	X18	Y18	Z18	X19	Y19	Z19	X20	Y20	Z20	X21	Y21	Z21	X22	Y22	Z22	X23	Y23	Z23	X24	Y24	Z24	X25	Y25	Z25	X26	Y26	Z26	X27	Y27	Z27	X28	Y28	Z28	X29	Y29	Z29	X30	Y30	Z30	X31	Y31	Z31	X32	Y32	Z32	X33	Y33	Z33	X34	Y34	Z34	X35	Y35	Z35	X36	Y36	Z36	X37	Y37	Z37	X38	Y38	Z38	X39	Y39	Z39	X40	Y40	Z40	X41	Y41	Z41	X42	Y42	Z42	X43	Y43	Z43	X44	Y44	Z44	X45	Y45	Z45	X46	Y46	Z46	X47	Y47	Z47	X48	Y48	Z48	X49	Y49	Z49	X50	Y50	Z50	X51	Y51	Z51	X52	Y52	Z52	X53	Y53	Z53	X54	Y54	Z54	X55	Y55	Z55	X56	Y56	Z56	X57	Y57	Z57	X58	Y58	Z58	X59	Y59	Z59	X60	Y60	Z60	X61	Y61	Z61	X62	Y62	Z62	X63	Y63	Z63	X64	Y64	Z64	X65	Y65	Z65	X66	Y66	Z66	X67	Y67	Z67	X68	Y68	Z68	X69	Y69	Z69	X70	Y70	Z70	X71	Y71	Z71	X72	Y72	Z72	X73	Y73	Z73	X74	Y74	Z74	

53	4.533	-1586.38596	1032.81158	795.68947	-1457.24579	993.25233	614.15550	-1269.71291	1070.02953	760.74326	-1433.18680	1105.71274	929.09477	-1454.39392	1454.01993	544.86797	-1420.63919	1649.19861	393.49007	-1340.60181	1653.97324	552.07283	-1494.47098	1684.75082	542.88567	-1262.39151	1388.75839	497.01038	-1201.59073	1087.85835	475.05688	-1272.39609	1125.27367	451.79935	-1429.09210	1018.39394	348.79990	-1415.10254	1054.00368	315.27493	-1431.47919	1093.60748	331.55956	-1588.78586	1508.53745	766.13136	-1622.29706	1163.95744	907.35634	-1617.46658	1221.85242	853.68416	-1643.62228	1261.90697	916.77139	-1764.45801	1039.61403	912.22404	-1793.30917	1058.53531	872.90016	-1763.16727	1043.54294	836.96976	-1297.94098	873.73398	634.92840	-1578.15598	926.68190	933.98605	-1424.30038	440.09533	643.37769	-1330.55374	481.55220	706.40205	-1433.17810	456.33072	756.84982	-1609.19678	454.16584	892.05956	-1574.89594	517.15092	974.06448	-1501.22101	476.76125	884.60106	-1375.38849	145.11720	708.96255	-1386.18484	155.10448	780.34576	-1316.11694	150.39583	740.39604	-1525.25543	192.84842	1075.36583	-1430.56213	208.34686	1057.34589	-1484.93103	179.69288	1020.16846	-1391.08093	979.21616	-385.07927	-1607.09000	1002.58530	-288.83966	-1644.59503	1096.85364	-467.93873	-1472.20917	1066.87408	-547.01859	-1400.06378	1420.27847	-217.28308	-1427.65121	1498.97690	-310.49118	-1403.75931	1581.01471	-96.79393	-1465.91385	1607.68692	-276.85272	-1337.01019	1588.58597	-273.21295	-1604.81293	1405.91049	-173.39098	-1649.74182	1161.82579	-21.49832	-1610.93842	1109.47197	-49.33574	-1581.92322	1186.05179	-7.83227	-1549.58008	1037.50290	201.30884	-1559.11041	1079.11842	219.73013	-1517.99500	1099.94110	212.23635	-1258.92014	1382.48032	-401.41544	-1302.05704	1084.59938	-500.33001	-1214.73061	1108.70377	-483.35213	-1253.72696	1095.72350	-554.91566	-1185.73326	881.72852	-514.48372	-1169.21928	888.34404	-476.04118	-1208.44109	882.51740	-452.65579	-1708.39005	916.96136	-350.21267	-1642.94449	460.92030	-187.11842	-1703.80554	496.47682	-244.74588	-1592.57950	470.39913	-273.22800	-1404.68521	428.25001	-343.07938	-1391.63544	442.33910	-428.29731	-1503.62732	448.89126	-384.59965	-1681.59576	206.34102	-272.53925	-1643.45215	210.49156	-344.33170	-1716.51337	212.66138	-341.83441	-1451.21094	167.27711	-432.42256	-1517.67227	173.34063	-436.49277	-1493.14896	178.60132	-366.03161	-1286.92169	1072.24083	517.64927	-1515.50781	1535.11917	649.07990	-1383.71536	925.58777	-498.31276 
54	4.550	-1586.31195	1032.28905	795.31990	-1456.34857	993.94913	613.89812	-1269.11644	1068.94493	761.73172	-1433.54843	1104.01955	929.87396	-1454.22470	1452.04620	545.76466	-1421.63788	1643.60550	390.67463	-1341.40472	1652.23892	549.09790	-1495.24338	1682.17285	539.59965	-1260.96863	1388.06259	500.01713	-1201.66130	1087.29210	475.69542	-1273.18466	1124.29665	452.76093	-1428.10791	1013.51418	349.31438	-1414.50165	1049.26743	315.38374	-1431.61392	1088.58925	331.48067	-1589.53522	1507.43088	765.71907	-1623.06290	1163.41148	906.91185	-1617.66418	1221.45218	853.56369	-1644.95605	1261.21552	916.00281	-1768.35571	1041.45325	903.68958	-1795.51422	1061.59523	863.65913	-1764.23447	1046.85097	828.53294	-1297.31033	873.41545	635.18505	-1579.16077	925.46188	932.71973	-1424.54208	439.77879	642.81967	-1330.80917	481.39256	705.99426	-1433.83377	456.04702	756.22833	-1611.98502	453.16029	886.13472	-1577.81967	516.18980	968.09029	-1503.68805	476.49395	879.14192	-1375.57098	144.85778	708.92509	-1386.46820	154.95494	780.28976	-1316.40259	150.18961	740.44617	-1525.68741	192.14537	1069.41147	-1431.22772	208.92591	1051.86531	-1485.53055	180.06170	1013.77068	-1393.23471	979.34669	-383.26656	-1609.20792	1002.91199	-285.81499	-1647.30148	1097.51595	-464.75185	-1475.63950	1067.79564	-544.62963	-1400.49988	1420.29221	-213.89786	-1428.59222	1498.93890	-306.59660	-1403.77045	1581.11465	-93.76718	-1466.66458	1607.46201	-273.58574	-1338.21915	1588.53455	-270.97776	-1602.34085	1406.87134	-167.49630	-1650.68176	1161.02173	-18.14129	-1612.86484	1108.52455	-47.11006	-1582.17285	1184.17458	-4.54886	-1549.12766	1030.75081	201.48952	-1558.79791	1072.25571	220.53816	-1517.40173	1093.03169	212.91193	-1260.87631	1382.65991	-399.16363	-1303.08243	1084.32648	-496.58054	-1215.74120	1109.35844	-480.24071	-1255.13306	1095.10307	-551.49548	-1184.96231	882.19109	-507.87735	-1167.73552	889.81064	-469.95140	-1206.53603	884.23576	-445.45826	-1710.07568	916.62018	-346.24687	-1641.54480	459.73152	-186.22843	-1704.96689	494.25556	-241.88213	-1595.77972	467.68219	-274.78659	-1406.06445	428.27991	-343.04443	-1393.52448	442.70924	-428.21865	-1505.24673	448.85082	-383.91056	-1683.39462	203.33477	-261.18851	-1650.05127	205.30634	-335.37907	-1722.50107	207.34480	-328.58910	-1451.70303	167.52777	-432.36176	-1518.29987	173.26540	-436.33015	-1493.64532	178.61988	-365.80208	-1287.43500	1071.68900	518.38314	-1515.33844	1533.14560	649.97650	-1386.90750	926.26129	-496.93382 
55	4.567	-1586.31607	1032.02110	795.28244	-1455.32150	994.48830	614.35112	-1268.65585	1068.08365	763.60031	-1433.76572	1102.46094	930.97633	-1453.82462	1449.93439	546.86470	-1422.44720	1638.33786	388.55587	-1341.91559	1650.55908	546.84334	-1495.87433	1679.57550	536.87767	-1259.73221	1387.20764	502.70206	-1203.28674	1086.02158	476.44875	-1273.48434	1122.37389	454.06548	-1426.76590	1007.76016	347.68600	-1413.44452	1043.06923	313.52676	-1431.25916	1082.47437	328.49277	-1590.53375	1506.27640	765.44907	-1624.26727	1162.96936	906.62804	-1618.37067	1220.90866	853.33817	-1646.65848	1260.87463	915.66078	-1771.81335	1043.42995	896.05461	-1797.36832	1064.59671	855.56717	-1765.29694	1050.15549	821.08963	-1296.77795	873.31619	635.74257	-1580.46738	924.50325	931.84525	-1424.60495	439.55498	642.35672	-1331.04767	481.24973	705.75844	-1434.23111	455.76160	755.76622	-1614.48929	452.53349	880.32158	-1580.94757	515.23266	962.56416	-1506.74286	476.18603	873.30261	-1375.70709	144.59208	708.93585	-1386.79825	154.78305	780.19676	-1316.54465	149.99303	740.42793	-1527.88544	191.81660	1063.48366	-1432.94586	209.24728	1047.62589	-1486.56387	179.73131	1008.35594	-1395.86349	979.45297	-381.35300	-1611.24878	1003.11630	-282.40499	-1650.37613	1098.02933	-460.13386	-1479.41422	1068.56224	-541.86150	-1400.89905	1420.10422	-210.60959	-1430.21057	1498.55011	-303.26544	-1403.90076	1580.97321	-90.55872	-1467.57675	1607.12097	-270.12493	-1338.75443	1588.17551	-267.85593	-1601.26633	1406.52298	-161.49555	-1652.25204	1157.93846	-16.84866	-1615.80933	1105.35080	-47.65313	-1583.02017	1179.04312	-4.78245	-1547.86514	1021.44287	198.98582	-1557.52502	1063.08472	218.28257	-1515.85938	1083.64769	210.07313	-1263.53821	1382.85995	-397.40658	-1304.52194	1084.16946	-492.75963	-1217.35489	1110.16640	-477.39449	-1257.13791	1094.57504	-548.23235	-1184.82460	883.01712	-500.69679	-1167.01759	891.74110	-463.11714	-1205.52208	886.30417	-437.96192	-1711.91910	915.94559	-342.04849	-1639.72794	457.91878	-186.66874	-1706.30371	491.54205	-239.26380	-1599.69696	464.78531	-276.99743	-1407.42859	428.50159	-342.88525	-1395.37445	443.12954	-428.19572	-1506.85852	448.82332	-383.57170	-1684.25781	200.00864	-251.17462	-1656.67755	200.46715	-327.32586	-1728.21243	202.34863	-315.83286	-1452.32681	167.81872	-432.37801	-1518.76999	173.18569	-436.00410	-1493.99033	178.63350	-365.66257	-1288.48145	1070.31212	519.34589	-1514.93835	1531.03378	651.07658	-1390.38361	926.94221	-495.05711 
56	4.583	-1586.34140	1031.91406	795.46310	-1454.09134	995.03258	615.03391	-1268.36502	1067.28653	766.14540	-1434.43146	1101.19698	932.46307	-1452.77496	1447.20184	548.35789	-1422.93716	1633.43109	386.97632	-1341.39832	1648.88306	543.78609	-1496.38046	1677.22397	534.73198	-1259.01550	1386.24176	505.03021	-1205.62889	1084.58466	476.85146	-1275.68451	1120.74753	453.71933	-1426.00708	1001.57860	345.48065	-1411.64993	1036.07841	310.24750	-1430.27954	1075.73692	323.55934	-1591.49323	1505.31433	765.23254	-1625.62820	1162.80357	906.44920	-1619.58313	1220.99220	853.23868	-1648.16818	1260.45967	915.40260	-1774.87717	1045.30457	889.55956	-1799.19205	1067.49184	848.67546	-1766.27289	1053.21037	814.87679	-1296.12366	873.27522	637.04796	-1581.74011	923.53783	931.14319	-1424.53766	439.39869	642.29103	-1331.11755	481.15227	705.95093	-1434.51096	455.39719	755.65483	-1616.56082	451.94759	874.69185	-1583.88931	513.97900	957.47231	-1508.90945	475.87570	868.86780	-1375.83252	144.40449	709.01421	-1386.98761	154.52353	780.29404	-1316.63101	149.86994	740.49057	-1530.51651	189.94928	1056.81892	-1435.40726	209.06050	1042.94579	-1488.19748	179.45871	1002.73537	-1398.55225	979.67857	-379.36718	-1613.12302	1003.10440	-278.39804	-1653.87161	1098.25104	-455.43823	-1483.58582	1069.21692	-538.72948	-1401.87927	1419.68216	-207.13144	-1432.17606	1498.37524	-299.64882	-1403.95889	1580.39200	-87.24646	-1468.76144	1606.80389	-266.32088	-1340.36270	1587.89383	-265.18839	-1602.30148	1404.44382	-156.19052	-1653.74954	1153.17818	-16.94903	-1619.00345	1100.39307	-49.92721	-1583.99780	1172.81296	-5.96410	-1546.16013	1010.99342	194.89450	-1555.90149	1052.76985	214.36300	-1514.20456	1073.28522	205.76593	-1266.38939	1383.39844	-395.83931	-1306.57364	1084.33044	-488.96317	-1219.79462	1111.15074	-474.79431	-1259.59152	1094.20067	-545.06935	-1185.43648	884.04396	-493.07362	-1167.05719	893.88145	-456.14773	-1205.21149	888.77129	-430.26875	-1713.76968	914.98863	-337.30598	-1638.55240	456.11404	-186.96758	-1707.85614	488.52600	-236.75678	-1603.72620	461.78280	-279.39913	-1409.01291	428.86478	-342.83356	-1397.38953	443.56861	-428.23357	-1508.74969	448.67352	-382.97768	-1684.84055	196.88765	-242.26322	-1663.17871	195.64180	-320.04787	-1733.04092	197.40763	-303.15331	-1452.97318	167.94071	-432.39960	-1519.47311	173.14543	-435.82634	-1494.43008	178.53451	-365.51365	-1290.83633	1069.00017	519.30801	-1513.88870	1528.30109	652.56973	-1393.89938	927.83730	-493.14095 
